<svg width="42" height="42" viewBox="0 0 42 42" fill="none" xmlns="http://www.w3.org/2000/svg">
<path d="M34.125 13.125H7.875C4.9755 13.125 2.625 15.4755 2.625 18.375V34.125C2.625 37.0245 4.9755 39.375 7.875 39.375H34.125C37.0245 39.375 39.375 37.0245 39.375 34.125V18.375C39.375 15.4755 37.0245 13.125 34.125 13.125Z" fill="#FFC44E"/>
<path d="M34.125 40.6875H7.875C7.0132 40.6875 6.15984 40.5178 5.36364 40.188C4.56744 39.8582 3.844 39.3748 3.23461 38.7654C2.0039 37.5347 1.3125 35.8655 1.3125 34.125V18.375C1.3125 16.6345 2.0039 14.9653 3.23461 13.7346C4.46532 12.5039 6.13452 11.8125 7.875 11.8125H34.125C35.8655 11.8125 37.5347 12.5039 38.7654 13.7346C39.9961 14.9653 40.6875 16.6345 40.6875 18.375V34.125C40.6875 35.8655 39.9961 37.5347 38.7654 38.7654C37.5347 39.9961 35.8655 40.6875 34.125 40.6875ZM7.875 14.4375C6.83071 14.4375 5.82919 14.8523 5.09077 15.5908C4.35234 16.3292 3.9375 17.3307 3.9375 18.375V34.125C3.9375 35.1693 4.35234 36.1708 5.09077 36.9092C5.82919 37.6477 6.83071 38.0625 7.875 38.0625H34.125C35.1693 38.0625 36.1708 37.6477 36.9092 36.9092C37.6477 36.1708 38.0625 35.1693 38.0625 34.125V18.375C38.0625 17.3307 37.6477 16.3292 36.9092 15.5908C36.1708 14.8523 35.1693 14.4375 34.125 14.4375H7.875Z" fill="#313030"/>
<path d="M34.125 13.125H7.875C6.48261 13.125 5.14726 13.6781 4.16269 14.6627C3.17812 15.6473 2.625 16.9826 2.625 18.375V23.625H39.375V18.375C39.375 16.9826 38.8219 15.6473 37.8373 14.6627C36.8527 13.6781 35.5174 13.125 34.125 13.125Z" fill="#6E54E8"/>
<path d="M39.375 24.9375H2.625C2.2769 24.9375 1.94306 24.7992 1.69692 24.5531C1.45078 24.3069 1.3125 23.9731 1.3125 23.625V18.375C1.3125 16.6345 2.0039 14.9653 3.23461 13.7346C4.46532 12.5039 6.13452 11.8125 7.875 11.8125H21H34.125C35.8655 11.8125 37.5347 12.5039 38.7654 13.7346C39.9961 14.9653 40.6875 16.6345 40.6875 18.375V23.625C40.6875 23.9731 40.5492 24.3069 40.3031 24.5531C40.0569 24.7992 39.7231 24.9375 39.375 24.9375ZM3.9375 22.3125H38.0625V18.375C38.0625 17.3307 37.6477 16.3292 36.9092 15.5908C36.1708 14.8523 35.1693 14.4375 34.125 14.4375H7.875C6.83071 14.4375 5.82919 14.8523 5.09077 15.5908C4.35234 16.3292 3.9375 17.3307 3.9375 18.375V22.3125Z" fill="#313030"/>
<path d="M34.125 14.4375H7.875C7.5269 14.4375 7.19306 14.2992 6.94692 14.0531C6.70078 13.8069 6.5625 13.4731 6.5625 13.125C6.5625 9.99213 7.80703 6.98757 10.0223 4.7723C12.2376 2.55703 15.2421 1.3125 18.375 1.3125H23.625C26.7579 1.3125 29.7624 2.55703 31.9777 4.7723C34.193 6.98757 35.4375 9.99213 35.4375 13.125C35.4375 13.4731 35.2992 13.8069 35.0531 14.0531C34.8069 14.2992 34.4731 14.4375 34.125 14.4375ZM9.27938 11.8125H32.7206C32.405 9.62548 31.3116 7.62549 29.6411 6.17913C27.9705 4.73277 25.8347 3.93693 23.625 3.9375H18.375C16.1653 3.93693 14.0295 4.73277 12.3589 6.17913C10.6884 7.62549 9.59504 9.62548 9.27938 11.8125Z" fill="#313030"/>
<path d="M11.8125 19.6875H9.1875C8.46263 19.6875 7.875 20.2751 7.875 21V26.25C7.875 26.9749 8.46263 27.5625 9.1875 27.5625H11.8125C12.5374 27.5625 13.125 26.9749 13.125 26.25V21C13.125 20.2751 12.5374 19.6875 11.8125 19.6875Z" fill="#EEF5FD"/>
<path d="M11.8125 28.875H9.1875C8.49131 28.875 7.82363 28.5984 7.33134 28.1062C6.83906 27.6139 6.5625 26.9462 6.5625 26.25V21C6.5625 20.3038 6.83906 19.6361 7.33134 19.1438C7.82363 18.6516 8.49131 18.375 9.1875 18.375H11.8125C12.5087 18.375 13.1764 18.6516 13.6687 19.1438C14.1609 19.6361 14.4375 20.3038 14.4375 21V26.25C14.4375 26.9462 14.1609 27.6139 13.6687 28.1062C13.1764 28.5984 12.5087 28.875 11.8125 28.875ZM9.1875 21V26.25H11.8125V21H9.1875Z" fill="#313030"/>
<path d="M32.8125 19.6875H30.1875C29.4626 19.6875 28.875 20.2751 28.875 21V26.25C28.875 26.9749 29.4626 27.5625 30.1875 27.5625H32.8125C33.5374 27.5625 34.125 26.9749 34.125 26.25V21C34.125 20.2751 33.5374 19.6875 32.8125 19.6875Z" fill="#EEF5FD"/>
<path d="M32.8125 28.875H30.1875C29.4913 28.875 28.8236 28.5984 28.3313 28.1062C27.8391 27.6139 27.5625 26.9462 27.5625 26.25V21C27.5625 20.3038 27.8391 19.6361 28.3313 19.1438C28.8236 18.6516 29.4913 18.375 30.1875 18.375H32.8125C33.5087 18.375 34.1764 18.6516 34.6687 19.1438C35.1609 19.6361 35.4375 20.3038 35.4375 21V26.25C35.4375 26.9462 35.1609 27.6139 34.6687 28.1062C34.1764 28.5984 33.5087 28.875 32.8125 28.875ZM30.1875 21V26.25H32.8125V21H30.1875Z" fill="#313030"/>
</svg>
